<svg xmlns="http://www.w3.org/2000/svg" viewBox="0 0 1200 700"><defs><linearGradient id="g" x1="0" y1="0" x2="1" y2="1"><stop stop-color="#071a42"/><stop offset=".55" stop-color="#075fe9"/><stop offset="1" stop-color="#18d8e6"/></linearGradient></defs><rect width="1200" height="700" rx="42" fill="#07111f"/><circle cx="1020" cy="80" r="260" fill="#0a68ff" opacity=".13"/><rect x="120" y="110" width="960" height="480" rx="26" fill="#0d1c32" stroke="#284363"/><rect x="170" y="160" width="210" height="380" rx="16" fill="#112743"/><rect x="420" y="160" width="610" height="70" rx="14" fill="#162d4b"/><rect x="420" y="265" width="290" height="235" rx="18" fill="url(#g)" opacity=".92"/><rect x="735" y="265" width="295" height="105" rx="18" fill="#162d4b"/><rect x="735" y="395" width="295" height="105" rx="18" fill="#162d4b"/><g fill="#4fdcf1"><rect x="205" y="205" width="90" height="12" rx="6"/><rect x="205" y="245" width="140" height="9" rx="4" opacity=".55"/><rect x="205" y="285" width="120" height="9" rx="4" opacity=".55"/><rect x="205" y="325" width="135" height="9" rx="4" opacity=".55"/><rect x="205" y="365" width="105" height="9" rx="4" opacity=".55"/></g><path d="M470 455c70-80 105-20 160-85 55-65 80 5 135-55" fill="none" stroke="#fff" stroke-width="9" stroke-linecap="round" opacity=".85"/></svg>
